<svg width="120" height="120" viewBox="0 0 120 120" fill="none" xmlns="http://www.w3.org/2000/svg">
<path d="M49.7548 5.91506L53.2516 3.89619L54.5016 6.06125L56.25 5.05181C56.8258 4.71935 57.4341 4.4697 58.0587 4.30237L57.4118 1.88752C59.1066 1.4335 60.8934 1.4335 62.5882 1.88752L61.9413 4.30237C62.5659 4.4697 63.1742 4.71935 63.75 5.05181L65.4984 6.06125L66.7484 3.89619L70.2452 5.91506L68.9952 8.08013L72.492 10.099L73.742 7.93394L77.2388 9.95281L75.9888 12.1179L79.4856 14.1368L80.7356 11.9717L84.2324 13.9906L82.9824 16.1556L86.4792 18.1745L87.7292 16.0094L91.226 18.0283L89.976 20.1934L93.4727 22.2122L94.7227 20.0472L98.2195 22.0661L96.9695 24.2311L100.466 26.25L101.716 24.0849L105.213 26.1038L103.963 28.2689L105.712 29.2783C106.287 29.6108 106.808 30.0127 107.265 30.47L109.033 28.7023C110.273 29.943 111.167 31.4905 111.621 33.1852L109.206 33.8324C109.374 34.457 109.462 35.1086 109.462 35.7735V37.7924H111.962V41.8301H109.462V45.8679H111.962V49.9056H109.462V53.9434H111.962V57.9811H109.462V62.0189H111.962V66.0566H109.462V70.0944H111.962V74.1321H109.462V78.1699H111.962V82.2076H109.462V84.2265C109.462 84.8914 109.374 85.543 109.206 86.1676L111.621 86.8148C111.167 88.5095 110.273 90.057 109.033 91.2977L107.265 89.53C106.808 89.9873 106.287 90.3892 105.712 90.7217L103.963 91.7311L105.213 93.8962L101.716 95.9151L100.466 93.75L96.9695 95.7689L98.2195 97.9339L94.7227 99.9528L93.4727 97.7878L89.976 99.8066L91.226 101.972L87.7292 103.991L86.4792 101.826L82.9824 103.844L84.2324 106.009L80.7356 108.028L79.4856 105.863L75.9888 107.882L77.2388 110.047L73.742 112.066L72.492 109.901L68.9952 111.92L70.2452 114.085L66.7484 116.104L65.4984 113.939L63.75 114.948C63.1742 115.281 62.5659 115.53 61.9413 115.698L62.5882 118.112C60.8934 118.567 59.1066 118.567 57.4118 118.112L58.0587 115.698C57.4341 115.53 56.8258 115.281 56.25 114.948L54.5016 113.939L53.2516 116.104L49.7548 114.085L51.0048 111.92L47.508 109.901L46.258 112.066L42.7612 110.047L44.0112 107.882L40.5144 105.863L39.2644 108.028L35.7676 106.009L37.0176 103.844L33.5208 101.826L32.2708 103.991L28.774 101.972L30.024 99.8066L26.5273 97.7878L25.2773 99.9528L21.7805 97.9339L23.0305 95.7689L19.5337 93.75L18.2837 95.9151L14.7869 93.8962L16.0369 91.7311L14.2885 90.7217C13.7126 90.3892 13.1923 89.9873 12.7351 89.53L10.9672 91.2977C9.72663 90.057 8.83322 88.5095 8.379 86.8148L10.7938 86.1676C10.6264 85.543 10.5385 84.8914 10.5385 84.2265V82.2076H8.03848V78.1699H10.5385V74.1321H8.03848V70.0944H10.5385V66.0566H8.03848V62.0189H10.5385V57.9811H8.03848V53.9434H10.5385V49.9056H8.03848V45.8679H10.5385V41.8301H8.03848V37.7924H10.5385V35.7735C10.5385 35.1086 10.6264 34.457 10.7938 33.8324L8.379 33.1852C8.83322 31.4905 9.72663 29.943 10.9672 28.7023L12.7351 30.47C13.1923 30.0127 13.7126 29.6108 14.2885 29.2783L16.0369 28.2689L14.7869 26.1038L18.2837 24.0849L19.5337 26.25L23.0305 24.2311L21.7805 22.0661L25.2773 20.0472L26.5273 22.2123L30.024 20.1934L28.774 18.0283L32.2708 16.0094L33.5208 18.1745L37.0176 16.1556L35.7676 13.9906L39.2644 11.9717L40.5144 14.1368L44.0112 12.1179L42.7612 9.95281L46.258 7.93394L47.508 10.099L51.0048 8.08013L49.7548 5.91506Z" stroke="#C2CEFF" stroke-width="5" stroke-dasharray="4 4"/>
</svg>
